<?xml version="1.0" encoding="utf-8"?>
<!-- Generator: Adobe Illustrator 23.0.2, SVG Export Plug-In . SVG Version: 6.00 Build 0)  -->
<svg version="1.1" id="Calque_1" xmlns="http://www.w3.org/2000/svg" xmlns:xlink="http://www.w3.org/1999/xlink" x="0px" y="0px"
	 viewBox="0 0 40 40" style="enable-background:new 0 0 40 40;" xml:space="preserve">
<style type="text/css">
	.st0{fill:none;}
	.st1{font-family:'MyriadPro-Regular';}
	.st2{font-size:41px;}
</style>
<rect x="2.19" y="2.54" class="st0" width="37.91" height="38.46"/>
<text transform="matrix(1 0 0 1 2.1909 31.645)" class="st1 st2">{</text>
<text transform="matrix(1 0 0 1 28.2612 31.0508)" class="st1 st2">}</text>
<g>
	<g>
		<path d="M11.66,14.12c5.78,0,11.57,0,17.35,0c1.93,0,1.93-3,0-3c-5.78,0-11.57,0-17.35,0C9.73,11.12,9.73,14.12,11.66,14.12
			L11.66,14.12z"/>
	</g>
</g>
<g>
	<g>
		<path d="M11.66,21.12c5.78,0,11.57,0,17.35,0c1.93,0,1.93-3,0-3c-5.78,0-11.57,0-17.35,0C9.73,18.12,9.73,21.12,11.66,21.12
			L11.66,21.12z"/>
	</g>
</g>
<g>
	<g>
		<path d="M11.66,28.12c5.78,0,11.57,0,17.35,0c1.93,0,1.93-3,0-3c-5.78,0-11.57,0-17.35,0C9.73,25.12,9.73,28.12,11.66,28.12
			L11.66,28.12z"/>
	</g>
</g>
</svg>
